<svg height="24" viewBox="0 0 24 24" width="24" xmlns="http://www.w3.org/2000/svg"><path d="m19.148 2.971c-.359-.599-1.016-.971-1.714-.971h-10.868c-.698 0-1.355.372-1.714.971l-2.709 4.514c-.094.156-.143.333-.143.515 0 1.006.386 1.914 1 2.618v8.382c0 1.103.897 2 2 2h4 6 4c1.103 0 2-.897 2-2v-8.382c.614-.704 1-1.612 1-2.618 0-.182-.049-.359-.143-.515zm.836 5.28c-.124.984-.966 1.749-1.984 1.749-1.103 0-2-.897-2-2 0-.068-.025-.128-.039-.192l.02-.004-.761-3.804h2.214zm-9.165-4.251h2.361l.813 4.065c-.035 1.072-.913 1.935-1.993 1.935s-1.958-.863-1.993-1.935zm-4.253 0h2.214l-.76 3.804.02.004c-.015.064-.04.124-.04.192 0 1.103-.897 2-2 2-1.018 0-1.86-.765-1.984-1.749zm3.434 15v-3h4v3zm6 0v-3c0-1.103-.897-2-2-2h-4c-1.103 0-2 .897-2 2v3h-3v-7.142c.321.083.652.142 1 .142 1.193 0 2.267-.525 3-1.357.733.832 1.807 1.357 3 1.357s2.267-.525 3-1.357c.733.832 1.807 1.357 3 1.357.348 0 .679-.059 1-.142v7.142z"/></svg>