<?xml version="1.0" encoding="utf-8"?>
<!-- Generator: Adobe Illustrator 23.0.3, SVG Export Plug-In . SVG Version: 6.00 Build 0)  -->
<svg version="1.1" id="Layer_1" xmlns="http://www.w3.org/2000/svg" xmlns:xlink="http://www.w3.org/1999/xlink" x="0px" y="0px"
	 viewBox="0 0 300 150" style="enable-background:new 0 0 300 150;" xml:space="preserve">
<style type="text/css">
	.st0{fill:#3953A4;}
	.st1{fill:#00A99D;}
	.st2{fill:#FFFFFF;}
</style>
<path class="st0" d="M63.2,84.4V38.8c0,0,1.2-8.8,13.5-8.6h59.4c0,0,14.7-14.1,32.1,0l56.7-0.2c0,0-1.5,9.3-31.8,26.8
	c0,0,9.9-9.1,11.1-13.6H89.3c0,0-9-0.7-9.6,7.7l0.6,28.9l46.8-4.3c0,0-99.6,15.1-72,60C55.1,135.4,18.5,103.3,63.2,84.4z"/>
<path class="st1" d="M168.9,73c0,0,48-6.5,79.9-55.9c0,0,2.7,12.9-13.3,30.1v60.2c0,0-13.3,0-18.6,8.6V60.1
	C216.8,60.1,195.5,70.8,168.9,73z"/>
<path class="st1" d="M158.2,75.1c0,0-74.6,21.5-77.3,43c0,0-2.7,6.5,8,6.5h114.6c0,0,5.3,0,10.7-4.3c0,0-8,10.8,5.3,19.4
	c0,0-8-4.3-13.3-4.3H75.6c0,0-24,0-13.3-19.4C62.3,116,70.3,92.3,158.2,75.1z"/>
<path class="st1" d="M252,117.4c0,0-17-14.9-32.6,2c-2.1,2.3-3,5.1-2.4,7.9c1,5.4,4,14.1,12.8,16.3c0,0,13,3.3,28.2-10.6l-21.8,2.5
	l-3.3-15.4L252,117.4z"/>
<polygon class="st0" points="163.7,38.9 161.6,40.8 121.8,12 123.9,10.1 "/>
<polygon class="st0" points="145.6,42.9 143.2,41.3 177.2,8 179.6,9.6 "/>
<rect x="91.6" y="126.8" class="st2" width="111.9" height="2.2"/>
<rect x="91.6" y="131.1" class="st2" width="111.9" height="2.2"/>
</svg>
